<svg width="240" height="68" viewBox="0 0 240 68" fill="none" xmlns="http://www.w3.org/2000/svg">
<path d="M48 20H0V37.78H15.1133V68H32.8867V37.78H48V20Z" fill="#001C71"/>
<path d="M114.107 50.5933L100.32 20H81.2067L103.207 68H134.767V50.5933H114.107Z" fill="#001C71"/>
<path d="M137.553 68H185.553V20H137.553V68ZM155.333 37.78H167.78V50.2267H155.333V37.78Z" fill="#001C71"/>
<path d="M221.993 20V45.6L205.993 20H187.993V68H205.773V48.0867L218.22 68H239.773V20H221.993Z" fill="#001C71"/>
<path d="M100.227 68L78.2267 20H50.8934V68H68.6667V65.48H80.0334L81.1134 68H100.227ZM68.6667 53.0333V38.9L74.7134 53.0333H68.6667Z" fill="#001C71"/>
<path d="M134.767 16.9265L126.133 35.7065L109.84 12.4465L134.767 16.9265Z" fill="#F0907B"/>
<path d="M100.44 7.59326L127.513 37.2133L126.133 20.8533L100.44 7.59326Z" fill="#EF483E"/>
<path d="M93.9268 0.473389L115.72 48.4734L134.433 40.6134L93.9268 0.473389Z" fill="#802629"/>
<path d="M134.767 16.9268L134.44 48.4734H115.72L134.767 16.9268Z" fill="#EB1C2D"/>
</svg>
