<svg width="16" height="16" viewBox="0 0 16 16" fill="none" xmlns="http://www.w3.org/2000/svg">
<path fill-rule="evenodd" clip-rule="evenodd" d="M4.50002 2.40002C4.8314 2.40002 5.10002 2.66865 5.10002 3.00002V11.5515L7.07576 9.57576C7.31007 9.34145 7.68997 9.34145 7.92429 9.57576C8.1586 9.81007 8.1586 10.19 7.92429 10.4243L4.92429 13.4243C4.68997 13.6586 4.31008 13.6586 4.07576 13.4243L1.07576 10.4243C0.841446 10.19 0.841446 9.81007 1.07576 9.57576C1.31007 9.34145 1.68997 9.34145 1.92429 9.57576L3.90002 11.5515V3.00002C3.90002 2.66865 4.16865 2.40002 4.50002 2.40002Z" fill="#ACC1DD"/>
<path fill-rule="evenodd" clip-rule="evenodd" d="M11.0758 2.57576C11.3101 2.34145 11.69 2.34145 11.9243 2.57576L14.9243 5.57576C15.1586 5.81008 15.1586 6.18997 14.9243 6.42429C14.69 6.6586 14.3101 6.6586 14.0758 6.42429L12.1 4.44855V13C12.1 13.3314 11.8314 13.6 11.5 13.6C11.1687 13.6 10.9 13.3314 10.9 13V4.44855L8.92429 6.42429C8.68997 6.6586 8.31007 6.6586 8.07576 6.42429C7.84145 6.18997 7.84145 5.81008 8.07576 5.57576L11.0758 2.57576Z" fill="#000F3C"/>
</svg>
