<svg width="16" height="16" viewBox="0 0 16 16" fill="none" xmlns="http://www.w3.org/2000/svg">
<path fill-rule="evenodd" clip-rule="evenodd" d="M4.4999 2.40002C4.83127 2.40002 5.0999 2.66865 5.0999 3.00002V11.5515L7.07564 9.57576C7.30995 9.34145 7.68985 9.34145 7.92417 9.57576C8.15848 9.81007 8.15848 10.19 7.92417 10.4243L4.92417 13.4243C4.68985 13.6586 4.30995 13.6586 4.07564 13.4243L1.07564 10.4243C0.841324 10.19 0.841324 9.81007 1.07564 9.57576C1.30995 9.34145 1.68985 9.34145 1.92417 9.57576L3.8999 11.5515V3.00002C3.8999 2.66865 4.16853 2.40002 4.4999 2.40002Z" fill="#7080B3"/>
<path fill-rule="evenodd" clip-rule="evenodd" d="M11.0756 2.57576C11.31 2.34145 11.6899 2.34145 11.9242 2.57576L14.9242 5.57576C15.1585 5.81008 15.1585 6.18997 14.9242 6.42429C14.6899 6.6586 14.31 6.6586 14.0756 6.42429L12.0999 4.44855V13C12.0999 13.3314 11.8313 13.6 11.4999 13.6C11.1685 13.6 10.8999 13.3314 10.8999 13V4.44855L8.92417 6.42429C8.68985 6.6586 8.30995 6.6586 8.07564 6.42429C7.84132 6.18997 7.84132 5.81008 8.07564 5.57576L11.0756 2.57576Z" fill="#7080B3"/>
</svg>
