<svg width="24" height="24" viewBox="0 0 24 24" fill="none" xmlns="http://www.w3.org/2000/svg">
<path fill-rule="evenodd" clip-rule="evenodd" d="M11.9999 8.1051C9.84879 8.1051 8.10498 9.84892 8.10498 12C8.10498 14.1511 9.84879 15.8949 11.9999 15.8949C14.151 15.8949 15.8948 14.1511 15.8948 12C15.8948 9.84892 14.151 8.1051 11.9999 8.1051ZM9.30498 12C9.30498 10.5117 10.5115 9.3051 11.9999 9.3051C13.4883 9.3051 14.6948 10.5117 14.6948 12C14.6948 13.4884 13.4883 14.6949 11.9999 14.6949C10.5115 14.6949 9.30498 13.4884 9.30498 12Z" fill="white"/>
<path fill-rule="evenodd" clip-rule="evenodd" d="M14.1557 4.01207C13.5221 1.86267 10.4777 1.86267 9.84414 4.01208L9.73151 4.39418C9.54285 5.03426 8.81176 5.33709 8.22575 5.01788L7.87593 4.82734C5.9081 3.75546 3.75533 5.90822 4.82722 7.87605L5.01776 8.22587C5.33696 8.81188 5.03413 9.54297 4.39405 9.73164L4.01195 9.84426C1.86255 10.4778 1.86255 13.5223 4.01195 14.1558L4.39405 14.2684C5.03413 14.4571 5.33696 15.1882 5.01776 15.7742L4.82722 16.124C3.75534 18.0918 5.90809 20.2446 7.87593 19.1727L8.22575 18.9822C8.81176 18.663 9.54285 18.9658 9.73151 19.6059L9.84414 19.988C10.4777 22.1374 13.5221 22.1374 14.1557 19.988L14.2683 19.6059C14.457 18.9658 15.188 18.663 15.7741 18.9822L16.1239 19.1727C18.0917 20.2446 20.2445 18.0918 19.1726 16.124L18.982 15.7742C18.6628 15.1882 18.9657 14.4571 19.6058 14.2684L19.9879 14.1558C22.1373 13.5223 22.1373 10.4778 19.9879 9.84426L19.6058 9.73164C18.9657 9.54297 18.6628 8.81188 18.982 8.22587L19.1726 7.87605C20.2445 5.90822 18.0917 3.75546 16.1239 4.82734L15.7741 5.01789C15.188 5.33709 14.457 5.03426 14.2683 4.39418L14.1557 4.01207ZM10.9952 4.35134C11.2904 3.34958 12.7094 3.34959 13.0046 4.35134L13.1172 4.73344C13.522 6.10682 15.0907 6.75658 16.3481 6.07169L16.6979 5.88115C17.615 5.38158 18.6183 6.38491 18.1188 7.30204L17.9282 7.65186C17.2433 8.90922 17.8931 10.4779 19.2665 10.8827L19.6486 10.9953C20.6503 11.2906 20.6503 12.7095 19.6486 13.0047L19.2665 13.1174C17.8931 13.5222 17.2433 15.0908 17.9282 16.3482L18.1188 16.698C18.6183 17.6151 17.615 18.6185 16.6979 18.1189L16.3481 17.9284C15.0907 17.2435 13.522 17.8932 13.1172 19.2666L13.0046 19.6487C12.7094 20.6505 11.2904 20.6505 10.9952 19.6487L10.8826 19.2666C10.4778 17.8932 8.90909 17.2435 7.65174 17.9284L7.30192 18.1189C6.38478 18.6185 5.38146 17.6151 5.88102 16.698L6.07157 16.3482C6.75646 15.0908 6.1067 13.5222 4.73332 13.1174L4.35122 13.0047C3.34946 12.7095 3.34946 11.2906 4.35122 10.9953L4.73332 10.8827C6.1067 10.4779 6.75646 8.90922 6.07157 7.65186L5.88102 7.30204C5.38146 6.38491 6.38478 5.38158 7.30192 5.88115L7.65173 6.07169C8.90909 6.75658 10.4778 6.10682 10.8826 4.73344L10.9952 4.35134Z" fill="white"/>
</svg>
