<svg width="24" height="24" viewBox="0 0 24 24" fill="none" xmlns="http://www.w3.org/2000/svg">
<path fill-rule="evenodd" clip-rule="evenodd" d="M9.5 17C11.2113 17 12.7888 16.4268 14.0509 15.462L19.2929 20.7071C19.6835 21.0976 20.3166 21.0976 20.7071 20.7071C21.0977 20.3166 21.0977 19.6834 20.7071 19.2929L15.462 14.0508C16.4268 12.7887 17 11.2113 17 9.5C17 5.35786 13.6421 2 9.5 2C5.35786 2 2 5.35786 2 9.5C2 13.6421 5.35786 17 9.5 17ZM9.50002 15.6C12.869 15.6 15.6 12.8689 15.6 9.49999C15.6 6.13106 12.869 3.39999 9.50002 3.39999C6.13109 3.39999 3.40002 6.13106 3.40002 9.49999C3.40002 12.8689 6.13109 15.6 9.50002 15.6Z" fill="#7080B3"/>
</svg>
