<svg width="20" height="20" viewBox="0 0 20 20" fill="none" xmlns="http://www.w3.org/2000/svg">
<path d="M15.8082 6.33351C15.6261 6.04923 15.2468 5.98606 14.9888 6.17557C14.7157 6.36509 14.6398 6.77572 14.8371 7.05999C15.5351 8.08655 15.8993 9.38159 15.7779 10.7556C15.5503 13.3615 13.5321 15.462 11.0284 15.7147C7.72038 16.0463 4.92833 13.1878 5.21664 9.74484C5.44425 6.94944 7.70521 4.76998 10.391 4.70681V5.71757C10.391 6.08082 10.7856 6.30192 11.0739 6.1124L13.5776 4.4857C13.8659 4.29618 13.8659 3.86977 13.5776 3.69604L11.0739 2.06934C10.7704 1.87983 10.391 2.10093 10.391 2.46417V3.47494C7.14376 3.52232 4.44276 6.01764 4.04823 9.39739C3.56266 13.5984 6.80993 17.1676 10.8007 16.9939C14.1087 16.836 16.8249 14.0406 16.9918 10.5977C17.0677 9.00256 16.6124 7.53379 15.8082 6.33351Z" fill="#4674FF"/>
</svg>
