<svg width="24" height="24" viewBox="0 0 24 24" fill="none" xmlns="http://www.w3.org/2000/svg">
<path fill-rule="evenodd" clip-rule="evenodd" d="M17.0001 3.3999C18.436 3.3999 19.6001 4.56396 19.6001 5.9999L19.6001 11.9999C19.6001 13.4358 18.436 14.5999 17.0001 14.5999L15.5001 14.5999C15.1687 14.5999 14.9001 14.3313 14.9001 13.9999C14.9001 13.6685 15.1687 13.3999 15.5001 13.3999L17.0001 13.3999C17.7733 13.3999 18.4001 12.7731 18.4001 11.9999L18.4001 5.9999C18.4001 5.2267 17.7733 4.5999 17.0001 4.5999L7.0001 4.5999C6.2269 4.5999 5.6001 5.2267 5.6001 5.9999L5.6001 11.9999C5.6001 12.7731 6.2269 13.3999 7.0001 13.3999L8.5001 13.3999C8.83147 13.3999 9.1001 13.6685 9.1001 13.9999C9.1001 14.3313 8.83147 14.5999 8.5001 14.5999L7.0001 14.5999C5.56416 14.5999 4.4001 13.4358 4.4001 11.9999L4.4001 5.9999C4.4001 4.56396 5.56416 3.3999 7.0001 3.3999L17.0001 3.3999ZM15.9244 18.0756C16.1587 18.31 16.1587 18.6899 15.9244 18.9242L12.4244 22.4242C12.19 22.6585 11.8101 22.6585 11.5758 22.4242L8.07583 18.9242C7.84152 18.6899 7.84152 18.31 8.07583 18.0756C8.31015 17.8413 8.69005 17.8413 8.92436 18.0756L11.4001 20.5514L11.4001 8.9999C11.4001 8.66853 11.6687 8.3999 12.0001 8.3999C12.3315 8.3999 12.6001 8.66853 12.6001 8.9999L12.6001 20.5514L15.0758 18.0756C15.3101 17.8413 15.69 17.8413 15.9244 18.0756Z" fill="#7080B3"/>
</svg>
