<svg width="24" height="24" viewBox="0 0 24 24" fill="none" xmlns="http://www.w3.org/2000/svg">
<path fill-rule="evenodd" clip-rule="evenodd" d="M3.3999 6.9999C3.3999 5.56396 4.56396 4.3999 5.9999 4.3999H11.9999C13.4358 4.3999 14.5999 5.56396 14.5999 6.9999V8.4999C14.5999 8.83127 14.3313 9.0999 13.9999 9.0999C13.6685 9.0999 13.3999 8.83127 13.3999 8.4999V6.9999C13.3999 6.2267 12.7731 5.5999 11.9999 5.5999H5.9999C5.2267 5.5999 4.5999 6.2267 4.5999 6.9999V16.9999C4.5999 17.7731 5.2267 18.3999 5.9999 18.3999H11.9999C12.7731 18.3999 13.3999 17.7731 13.3999 16.9999V15.4999C13.3999 15.1685 13.6685 14.8999 13.9999 14.8999C14.3313 14.8999 14.5999 15.1685 14.5999 15.4999V16.9999C14.5999 18.4358 13.4358 19.5999 11.9999 19.5999H5.9999C4.56396 19.5999 3.3999 18.4358 3.3999 16.9999V6.9999ZM18.0756 8.07564C18.31 7.84132 18.6899 7.84132 18.9242 8.07564L22.4242 11.5756C22.6585 11.81 22.6585 12.1899 22.4242 12.4242L18.9242 15.9242C18.6899 16.1585 18.31 16.1585 18.0756 15.9242C17.8413 15.6899 17.8413 15.31 18.0756 15.0756L20.5514 12.5999H8.9999C8.66853 12.5999 8.3999 12.3313 8.3999 11.9999C8.3999 11.6685 8.66853 11.3999 8.9999 11.3999H20.5514L18.0756 8.92417C17.8413 8.68985 17.8413 8.30995 18.0756 8.07564Z" fill="#7080B3"/>
</svg>
