<svg width="20" height="15" viewBox="0 0 20 15" fill="none" xmlns="http://www.w3.org/2000/svg">
<path fill-rule="evenodd" clip-rule="evenodd" d="M18 14.4C18 14.4 19.2 14.4 19.2 13.2C19.2 12 18 8.40002 13.2 8.40002C8.39998 8.40002 7.19998 12 7.19998 13.2C7.19998 14.4 8.39998 14.4 8.39998 14.4H18ZM8.40544 13.2666L8.40498 13.2649L8.40544 13.2666ZM8.4268 13.2H17.9732C17.9773 13.1995 17.9831 13.1988 17.9902 13.1976C17.9935 13.197 17.9968 13.1965 18 13.1958C17.9982 12.879 17.7997 11.9603 17.0889 11.131C16.424 10.3553 15.2608 9.60002 13.2 9.60002C11.1392 9.60002 9.97599 10.3553 9.31109 11.131C8.60023 11.9603 8.40173 12.879 8.39999 13.1958C8.40318 13.1965 8.40644 13.197 8.40976 13.1976C8.41682 13.1988 8.42263 13.1995 8.4268 13.2ZM17.9945 13.2666L17.995 13.2649L17.9945 13.2666Z" fill="white"/>
<path fill-rule="evenodd" clip-rule="evenodd" d="M13.2 6C14.5255 6 15.6 4.92548 15.6 3.6C15.6 2.27452 14.5255 1.2 13.2 1.2C11.8745 1.2 10.8 2.27452 10.8 3.6C10.8 4.92548 11.8745 6 13.2 6ZM16.8 3.6C16.8 5.58822 15.1882 7.2 13.2 7.2C11.2118 7.2 9.60001 5.58822 9.60001 3.6C9.60001 1.61177 11.2118 0 13.2 0C15.1882 0 16.8 1.61177 16.8 3.6Z" fill="white"/>
<path fill-rule="evenodd" clip-rule="evenodd" d="M8.32312 8.73598C7.88176 8.59481 7.39145 8.49218 6.84754 8.43969C6.57834 8.41372 6.29602 8.40002 6 8.40002C1.2 8.40002 0 12 0 13.2C0 14 0.4 14.4 1.2 14.4H6.25963C6.09068 14.0591 6 13.655 6 13.2C6 11.9877 6.45269 10.7496 7.30778 9.71545C7.59993 9.36212 7.93904 9.03258 8.32312 8.73598ZM5.90405 9.60057C3.90299 9.62363 2.76562 10.3674 2.11111 11.131C1.39709 11.964 1.2 12.8871 1.2 13.2H4.8C4.8 11.9456 5.18707 10.6964 5.90405 9.60057Z" fill="white"/>
<path fill-rule="evenodd" clip-rule="evenodd" d="M1.80002 4.20004C1.80002 2.21181 3.41179 0.600037 5.40002 0.600037C7.38824 0.600037 9.00002 2.21181 9.00002 4.20004C9.00002 6.18826 7.38824 7.80004 5.40002 7.80004C3.41179 7.80004 1.80002 6.18826 1.80002 4.20004ZM5.40002 1.80004C4.07453 1.80004 3.00002 2.87455 3.00002 4.20004C3.00002 5.52552 4.07453 6.60004 5.40002 6.60004C6.7255 6.60004 7.80002 5.52552 7.80002 4.20004C7.80002 2.87455 6.7255 1.80004 5.40002 1.80004Z" fill="white"/>
</svg>
